<svg width="146" height="130" viewBox="0 0 146 130" fill="none" xmlns="http://www.w3.org/2000/svg">
<path fill-rule="evenodd" clip-rule="evenodd" d="M85.08 89.6441V121.771V122.045H85.0744C84.9406 126.158 81.81 129.468 77.9891 129.468C74.1681 129.468 71.0375 126.158 70.9034 122.045H70.8981V121.771V85.4104L60.744 111.056C60.2824 112.125 59.7307 112.854 59.0676 113.73C57.8059 115.196 56.0102 116.118 54.0228 116.118C50.4568 116.118 47.507 113.706 46.1414 109.659L38.3449 85.7268V117.074V118.845H38.2017C37.4253 123.634 32.8002 127.292 28.1714 127.292C25.5683 127.292 22.7011 125.859 20.9941 123.995C8.02387 110.823 0 92.7743 0 72.909C0 32.7521 32.7745 0 72.9582 0C113.142 0 145.916 32.7517 145.916 72.909C145.916 92.6594 137.983 110.615 125.144 123.768C121.8 126.929 117.579 127.111 115.217 123.145L85.0797 89.6441H85.08ZM104.35 58.2529C105.112 57.1776 104.502 55.8067 103.55 55.7938H87.56C85.0596 55.7764 84.9872 57.0083 84.9762 58.6997L85.0797 64.1856V84.7148L104.35 58.2529H104.35ZM113.952 42.6201C119.168 42.9767 123.322 47.707 123.322 53.457C123.322 55.2876 122.9 57.0131 122.158 58.528L122.309 58.5428L121.605 59.5276C121.362 59.9164 121.096 60.287 120.81 60.6379L105.594 81.9096C103.516 84.6291 103.874 87.7059 105.087 88.7824L121.349 104.617C127.358 95.5005 130.861 84.6018 130.861 72.9093C130.861 41.0386 104.85 15.0451 72.9586 15.0451C41.0666 15.0451 15.0554 41.0386 15.0554 72.9093C15.0554 85.0554 18.8377 96.3451 25.2803 105.67V55.0815V54.5369H25.2928C25.5562 48.6361 30.0724 43.9103 35.5728 43.9103C40.8961 43.9103 45.2983 48.3383 45.8133 53.9746L55.1554 82.7459L69.0872 48.9309C70.4532 44.3961 74.0287 43.0055 77.4824 42.6812V42.5986H79.3819H113.318H113.951V42.6206L113.952 42.6201Z" fill="#D83135"/>
</svg>
