<svg width="684" height="148" viewBox="0 0 684 148" fill="none" xmlns="http://www.w3.org/2000/svg">
<path fill-rule="evenodd" clip-rule="evenodd" d="M175.046 95.436C171.884 98.1964 167.867 96.464 167.182 91.0721C167.368 87.2147 177.457 75.5662 182.361 69.3164C187.266 63.067 192.438 56.8013 201.187 47.0431C209.935 37.2846 216.566 32.4739 215.932 41.9899C213.262 52.5976 210.112 59.4908 208.328 68.8678C207.389 73.8035 207.287 78.7499 210.91 72.5194C215.787 65.0719 222.763 52.0205 232.516 41.314C234.593 39.0348 237.154 36.6006 239.368 34.4408C243.061 30.8419 245.503 27.8152 250.405 30.6669C253.714 34.6777 249.206 41.8577 245.813 50.2245C243.698 55.4391 241.792 61.4248 240.7 65.7793C239.974 68.6791 238.713 72.8312 238.817 75.955C238.861 77.2331 239.708 77.0716 240.422 76.5995C245.185 73.4481 247.714 69.7245 253.243 70.0969C261.881 70.6782 254.518 84.1384 257.196 85.252C259.874 86.3656 260.222 82.1396 260.742 80.1011C261.215 78.2512 261.431 73.1643 263.092 72.4345C264.723 71.7187 273.337 68.8223 275.614 71.3512C277.891 73.8801 275.855 78.4035 277.06 81.6902C277.367 82.5765 278.214 83.0744 279.061 82.2396C279.907 81.4049 282.568 77.8696 285.061 74.1301C287.554 70.3907 290.941 70.136 291.4 72.9956C291.86 75.8553 290.761 79.5217 290.855 82.3367C290.907 84.5162 291.345 84.6612 292.536 84.8295C293.728 84.9977 294.752 83.9038 295.082 82.7352C296.754 76.8189 296.313 68.4131 300.069 59.8542C303.809 51.3272 313.533 45.0762 320.49 43.6845C341.988 39.3811 355.334 48.1572 359.392 52.9394C370.666 66.2272 364.187 79.5182 358.133 86.5039C349.34 96.6478 329.75 110.374 310.809 104.324C304.687 102.369 301.39 98.4628 297.936 93.0231C295.751 94.9139 293.59 96.2583 291.405 96.1571C289.74 96.214 287.941 95.4451 286.938 94.1432C285.373 92.1115 284.919 89.1946 283.59 89.2685C282.792 89.3128 282.159 91.8242 278.482 94.1826C267.747 101.071 269.358 86.8442 269.382 83.0425C268.634 81.644 266.409 82.1154 265.938 82.8353C265.199 83.7693 264.835 90.1631 262.96 92.9621C261.085 95.7612 258.991 95.8161 256.183 96.051C251.886 96.4114 249.743 95.5819 248.041 95.1079C247.263 94.8911 247.119 94.965 246.385 95.2807C243.761 96.4087 242.123 96.9157 239.444 96.7778C236.488 96.6258 234.885 94.1618 234.129 96.4606C228.754 112.78 228.669 128.854 227.984 140.983C227.885 142.751 227.02 144.12 225.978 145.621C224.315 148.014 216.519 150.436 216.609 141.552C216.456 128.321 221.434 102.598 225.213 82.3851C225.85 78.9806 229.051 66.0282 226.336 66.5735C223.622 67.1187 217.523 78.3187 215.156 82.6746C212.789 87.0306 212.174 87.6755 211.17 89.536C207.022 97.2295 199.667 102.702 196.226 93.9822C194.678 88.9691 195.544 81.5863 197.347 75.3449C198.141 72.5944 200.578 66.9941 198.294 67.8584C193.856 69.5374 179.53 91.0641 175.045 95.4356L175.046 95.436ZM445.684 81.88C448.367 82.2226 452.677 82.7182 455.089 82.7182C456.033 82.7182 456.899 82.636 457.668 82.512C462.986 86.6987 458.879 93.2785 454.636 96.6717C453.002 97.9782 452.289 98.7913 450.286 96.3242C448.47 94.0887 445.809 90.8955 443.225 87.5471C442.232 86.2595 441.829 85.6847 442.794 84.1853C443.052 83.7848 443.345 83.4086 443.648 83.1646C444.268 82.6659 444.953 82.2381 445.684 81.88H445.684ZM428.31 86.6896C427.615 86.2788 426.313 85.471 425.052 84.4927C419.084 79.8643 407.75 80.9195 401.137 82.6049C398.114 83.376 397.526 85.4748 396.574 89.4901C395.62 93.5051 394.957 97.525 393.968 105.8C393.904 106.333 387.815 105.636 387.69 105.347C387.565 105.058 388.588 97.586 389.511 84.598C389.868 78.0489 390.401 71.5403 390.836 65.001C390.935 63.5096 391.285 58.7076 391.471 54.7464C391.583 52.3703 391.613 50.4101 391.515 50.0206C391.254 48.9809 390.29 48.9703 388.526 48.8127C385.168 48.5103 380.947 48.525 378.816 48.5273C376.684 48.53 376.214 48.2644 376.195 47.369L376.194 47.3682L376.195 47.3607C376.18 46.5752 376.327 45.7173 376.39 44.939C376.37 44.3468 377.034 43.8099 377.517 43.6371C378.269 43.3677 379.998 42.9084 384.169 41.9403C392.257 40.0628 404.15 39.2977 415.265 39.3796C426.38 39.4618 437.592 41.4602 443.506 43.1744C450.408 45.1751 453.419 49.1943 453.445 52.3135C453.522 61.4578 440.501 67.337 433.928 70.6161C432.185 71.4865 427.515 73.9107 426.469 74.7443C425.422 75.5779 425.244 76.0319 425.246 76.7056C425.252 78.1769 429.596 79.6577 431.742 80.3917C435.077 75.3567 440.473 71.7517 446.63 71.2648C451.858 70.8517 455.747 73.6849 456.729 74.1942C460.68 76.2407 464.256 77.5688 468.418 75.1293C473.607 72.0855 475.206 68.4703 476.293 62.7377C477.83 54.6191 478.323 46.5714 479.136 38.5452C479.837 31.6195 487.107 32.8502 489.054 38.8283C490.364 42.852 491.618 47.7631 491.454 52.0528C490.871 67.3176 482.937 69.4869 479.667 75.4105C476.396 81.3344 476.102 87.267 480.073 87.2204C482.918 87.1871 483.312 77.5862 484.335 74.972C485.358 72.3587 491.362 75.7231 492.611 74.3048C493.095 73.7561 495.158 69.6976 497.954 67.5886C502.615 64.0734 509.758 64.0783 509.621 69.4983C509.483 74.9994 504.581 79.1287 498.644 81.06C497.984 81.2749 497.772 81.1589 497.476 81.5337C497.18 81.908 497.226 82.4075 497.444 82.9141C498.281 84.8523 500.619 85.1084 502.355 84.5279C506.278 83.2165 510.439 78.6612 512.125 75.0342C512.677 73.8547 512.219 71.6911 512.417 70.4081C512.763 68.1774 514.247 65.5588 516.115 64.0317C516.897 63.3929 517.796 63.0003 518.444 63.968C518.9 64.6493 519.139 64.8536 519.945 64.9271C521.209 65.0423 522.94 65.3598 524.133 64.793C525.314 64.2318 528.252 64.0552 529.029 65.2465C529.292 65.6493 529.576 66.2306 529.663 66.9433C530.354 72.583 526.408 74.9671 525.094 79.6482C523.749 84.4384 528.366 81.4591 530.348 79.3978C536.159 73.3553 541.894 61.1679 543.772 52.9428C544.722 48.7805 542.63 49.5769 538.407 50.3764C534.183 51.1763 525.461 52.7951 522.834 53.7791C520.207 54.7631 515.314 57.8334 513.567 55.1954C511.82 52.5582 514.369 50.3916 515.279 49.9308C522.591 46.2281 533.462 44.1225 541.703 42.5647C544.821 41.9752 545.291 41.5743 546.033 40.5831C546.775 39.5926 547.581 38.0026 548.433 36.1676C549.705 33.4265 550.839 29.6185 554.199 31.7423C556.405 33.1363 557.601 35.7697 558.163 37.4157C558.936 39.682 561.765 39.2777 563.635 38.8669C598.91 31.1227 632.993 25.9509 652.987 21.9079C672.982 17.8649 677.431 17.4565 680.454 17.5554C686.087 17.7407 683.774 23.8593 679.77 24.9832C674.784 26.3852 668.503 26.9001 663.39 27.7834C628.723 33.7641 593.709 40.0882 559.258 46.6767C556.315 47.2386 556.289 49.6319 556.289 49.6319C555.151 54.6206 553.013 58.6781 551.115 63.2398C549.216 67.8004 545.295 72.7338 545.049 76.8841C544.803 81.0347 546.73 83.9834 550.245 85.0432C554.845 86.4304 559.514 81.4681 560.477 78.7138C561.441 75.9595 560.957 75.9743 561.627 71.4368C562.296 66.8997 562.87 65.7952 564.509 62.759C566.148 59.7227 568.397 57.7084 568.897 57.4151C569.397 57.1207 574.094 54.0243 574.602 57.1673C575.111 60.3108 573.847 61.31 573.059 63.255C572.271 65.1995 571.16 66.6678 570.206 69.8802C569.253 73.0927 569.88 76.5953 569.882 76.5953C569.884 76.5953 570.153 79.3489 571.232 81.9267C576.462 94.4236 585.245 99.1354 598.494 101.649C611.062 104.033 627.318 101.885 637.696 96.3488C650.775 89.3723 656.722 75.598 647.301 63.8722C642.301 57.6489 633.493 52.418 622.263 50.8618C612.135 49.4583 600.563 52.0357 594.661 56.5516C588.759 61.0667 588.791 64.0704 589.091 68.4097C589.312 71.0954 590.545 72.7171 591.612 75.1608C592.275 76.6749 591.553 79.0677 590.352 79.7039C587.364 81.2863 582.058 79.0704 579.675 77.0712C575.008 73.1555 577.237 64.8866 579.788 59.8322C584.1 51.2885 593.429 47.1114 602.496 45.1047C610.264 43.3848 615.878 43.0134 624.725 44.2486C633.572 45.4839 638.513 48.3087 646.308 53.1815C654.103 58.0543 664.156 71.0109 660.649 82.6686C655.085 101.166 625.468 111.077 611.422 110.725C594.383 110.299 582.526 107.688 570.381 95.7024L566.267 91.4385C565.284 90.3275 564.729 90.4344 563.415 91.0873C556.487 94.5282 547.138 93.0826 543.971 90.2138C540.804 87.3451 540.158 84.3248 539.46 83.2445C538.763 82.1646 537.993 82.5394 537.129 83.376C536.914 83.5852 536.636 83.7988 536.337 84.0694C532.752 87.3113 525.094 91.8557 520.92 87.0227C517.552 83.1237 521.108 77.1769 523.029 73.5227C523.356 72.8998 524.203 71.6944 522.226 71.6755C520.248 71.6569 519.601 72.1958 518.734 73.7698C516.522 77.7658 514.266 82.4344 512.103 84.8102C509.146 88.0594 505.571 91.6177 501.344 92.2558C497.95 92.7685 495.507 90.7951 493.989 89.106C491.162 85.7454 491.309 82.7292 491.43 81.63C491.5 80.9995 490.631 80.7335 489.652 80.6228C488.672 80.5122 487.579 80.5565 487.526 81.1987C486.939 88.3481 483.535 93.5741 479.41 93.7954C473.754 94.0993 471.749 84.2111 470.297 84.6938C469.63 84.9163 469.31 85.413 469.108 86.0049C468.906 86.5967 467.621 89.4734 465.342 93.4342C463.063 97.395 459.15 101.31 458.775 101.895C458.171 102.835 457.537 103.866 458.35 104.858C465.136 113.139 472.089 121.677 480.245 129.485C487.439 135.198 485.158 140.637 479.78 138.871C474.401 137.105 467.116 128.229 462.192 123.391C457.884 119.158 454.03 114.374 449.812 109.911C449.122 109.18 446.493 110.692 443.937 110.95C431.945 112.163 423.549 97.3408 428.308 86.6896H428.31ZM303.932 84.559C303.932 84.559 303.189 87.3012 305.682 90.0953C311.18 96.256 315.153 97.8595 323.549 97.6595C331.609 97.4674 346.521 89.1381 351.808 81.8732C357.096 74.6087 359.219 68.354 355.684 60.7386C352.904 54.7495 344.33 48.5114 329.294 48.7217C322.027 48.8233 313.615 52.1698 310.122 59.2748C308.472 62.6328 307.737 67.9349 308.046 71.6888C308.151 72.9453 308.012 74.1063 310.385 75.9766C312.759 77.8473 313.738 77.9795 314.42 79.1814C315.1 80.3833 314.737 81.1162 314.218 81.6743C313.697 82.2324 311.298 82.614 309.233 82.8451C307.169 83.0759 306.108 82.9402 305.175 83.5609C304.242 84.1827 304.298 84.1842 304.298 84.1842L303.931 84.5585L303.932 84.559ZM240.814 84.8674C240.814 84.8674 242.655 82.4552 244.447 81.0426C246.24 79.6297 247.293 79.932 247.838 80.544C248.384 81.1544 248.074 82.4746 246.515 84.1494C244.956 85.8245 243.574 87.2576 242.82 87.5535C242.067 87.8502 241.006 87.7138 240.612 87.3607C240.219 87.0064 240.091 86.2493 240.361 85.7632C240.631 85.2751 240.815 84.8674 240.815 84.8674H240.814ZM504.597 70.9143C505.223 67.8401 501.983 69.2906 499.795 71.4186C493.513 77.529 503.419 76.7052 504.597 70.9143ZM481.747 51.9773C481.442 56.3068 480.702 58.5443 481.298 61.828C481.894 65.1113 484.223 61.6264 485.257 58.9892C486.583 55.6089 487.465 50.1268 485.831 46.6301C483.264 41.1389 482.051 47.6483 481.747 51.9773H481.747ZM434.989 92.7086C434.638 93.006 434.252 93.5468 433.987 94.5293C432.253 98.8944 439.011 107.564 443.827 103.247C444.504 102.469 444.196 102.397 443.642 101.681C441.608 99.0512 438.862 95.8506 436.684 93.2508C436.214 92.6893 435.716 92.0937 434.989 92.709V92.7086ZM397.678 51.6826C396.828 56.9775 396.228 62.9848 396.972 68.0399C397.548 71.9487 398.944 75.7754 405.14 74.6489C411.852 73.4276 430.534 64.7168 438.837 58.6189C458.286 44.3346 414.468 45.8867 408.769 46.3713C403.07 46.856 398.528 46.388 397.678 51.6826ZM291.63 61.3213C293.588 61.3213 295.176 62.909 295.176 64.8665C295.176 66.8243 293.588 68.412 291.63 68.412C289.673 68.412 288.085 66.8243 288.085 64.8665C288.085 62.909 289.673 61.3213 291.63 61.3213Z" fill="#D83135"/>
<path fill-rule="evenodd" clip-rule="evenodd" d="M85.08 90.2212V122.348V122.622H85.0744C84.9406 126.736 81.81 130.045 77.9891 130.045C74.1681 130.045 71.0375 126.736 70.9034 122.622H70.8981V122.348V85.9876L60.744 111.634C60.2824 112.702 59.7307 113.431 59.0676 114.307C57.8059 115.773 56.0102 116.695 54.0228 116.695C50.4568 116.695 47.507 114.283 46.1414 110.236L38.3449 86.304V117.651V119.422H38.2017C37.4253 124.212 32.8002 127.869 28.1714 127.869C25.5683 127.869 22.7011 126.437 20.9941 124.572C8.02387 111.4 0 93.3514 0 73.4861C0 33.3293 32.7745 0.577148 72.9582 0.577148C113.142 0.577148 145.916 33.3289 145.916 73.4861C145.916 93.2366 137.983 111.193 125.144 124.345C121.8 127.507 117.579 127.688 115.217 123.722L85.0797 90.2212H85.08ZM104.35 58.8301C105.112 57.7547 104.502 56.3838 103.55 56.3709H87.56C85.0596 56.3535 84.9872 57.5854 84.9762 59.2769L85.0797 64.7628V85.2919L104.35 58.8301H104.35ZM113.952 43.1973C119.168 43.5538 123.322 48.2842 123.322 54.0342C123.322 55.8647 122.9 57.5903 122.158 59.1052L122.309 59.12L121.605 60.1048C121.362 60.4935 121.096 60.8642 120.81 61.215L105.594 82.4868C103.516 85.2062 103.874 88.2831 105.087 89.3595L121.349 105.194C127.358 96.0776 130.861 85.179 130.861 73.4865C130.861 41.6157 104.85 15.6223 72.9586 15.6223C41.0666 15.6223 15.0554 41.6157 15.0554 73.4865C15.0554 85.6326 18.8377 96.9223 25.2803 106.247V55.6586V55.1141H25.2928C25.5562 49.2133 30.0724 44.4875 35.5728 44.4875C40.8961 44.4875 45.2983 48.9154 45.8133 54.5518L55.1554 83.3231L69.0872 49.5081C70.4532 44.9733 74.0287 43.5827 77.4824 43.2583V43.1757H79.3819H113.318H113.951V43.1977L113.952 43.1973Z" fill="#D83135"/>
</svg>
