<svg width="490" height="94" viewBox="0 0 490 94" fill="none" xmlns="http://www.w3.org/2000/svg">
<path fill-rule="evenodd" clip-rule="evenodd" d="M208.307 3.32373H485.886V89.3541H208.307V3.32373Z" fill="#FEFEFE"/>
<path fill-rule="evenodd" clip-rule="evenodd" d="M4.29053 3.32422H208.307V88.6991H4.29053V3.32422Z" fill="#E13236"/>
<path d="M16.9614 16.3135H31.304V61.8031H53.6709V76.6713H16.9614V16.3135ZM60.1621 16.3135H98.5665V29.2003H74.5252V38.7986H96.8272V51.1091H74.5252V62.9975H99.2682V76.6713H60.1617V16.3135H60.1621ZM102.401 16.3135H117.391L127.835 59.7509L138.116 16.3135H152.675L135.46 76.6713H119.929L102.401 16.3135ZM182.224 66.7078H165.894L163.647 76.6713H149.003L166.434 16.3135H182.061L199.503 76.6713H184.502L182.224 66.7078ZM179.221 53.6523L174.091 31.955L168.993 53.6523H179.221H179.221Z" fill="#FEFEFE"/>
<path d="M217.134 16.258H238.741C242.992 16.258 246.433 17.0041 249.063 18.4826C251.681 19.9744 253.851 22.1008 255.561 24.8741C257.269 27.6614 258.508 30.8859 259.285 34.5743C260.053 38.2626 260.436 42.1624 260.436 46.288C260.436 52.75 259.866 57.7615 258.716 61.3236C257.577 64.8854 255.987 67.8701 253.949 70.2637C251.923 72.6713 249.742 74.276 247.409 75.0786C244.219 76.177 241.327 76.7257 238.741 76.7257H217.134V16.258ZM231.674 29.9564V62.9848H235.235C238.281 62.9848 240.44 62.5627 241.721 61.69C243.003 60.831 244.011 59.3105 244.745 57.1563C245.469 55.0022 245.83 51.4965 245.83 46.6533C245.83 40.2477 245.019 35.869 243.397 33.5038C241.765 31.1387 239.069 29.9561 235.3 29.9561H231.673L231.674 29.9564ZM268.653 16.258H283.226V76.7257H268.653V16.258ZM293.636 16.258H332.6V29.1679H308.209V38.7836H330.835V51.1165H308.209V63.0272H333.312V76.7253H293.636V16.2576L293.636 16.258ZM338.603 56.7198L352.442 55.6074C352.739 58.4939 353.352 60.6901 354.272 62.2107C355.763 64.6607 357.911 65.8706 360.693 65.8706C362.764 65.8706 364.364 65.2511 365.493 63.9984C366.61 62.7453 367.169 61.2956 367.169 59.6481C367.169 58.0854 366.643 56.6778 365.569 55.4387C364.496 54.1997 362.019 53.0307 358.119 51.9334C351.742 50.0889 347.194 47.6532 344.477 44.598C341.738 41.5428 340.368 37.6575 340.368 32.9267C340.368 29.8151 341.07 26.8732 342.472 24.1136C343.875 21.3544 345.978 19.1858 348.794 17.5948C351.61 16.0185 355.467 15.23 360.365 15.23C366.381 15.23 370.972 16.6657 374.127 19.5378C377.283 22.41 379.156 26.9858 379.759 33.2507L366.052 34.2783C365.69 31.5608 364.924 29.576 363.751 28.3373C362.589 27.1123 360.979 26.4928 358.93 26.4928C357.231 26.4928 355.96 26.9429 355.106 27.8724C354.252 28.7875 353.824 29.9136 353.824 31.2372C353.824 32.1947 354.175 33.0533 354.876 33.8274C355.566 34.6303 357.188 35.3624 359.762 36.052C366.118 37.8117 370.665 39.5998 373.415 41.4019C376.165 43.2044 378.17 45.4286 379.419 48.1034C380.669 50.7641 381.304 53.7488 381.304 57.0578C381.304 60.9292 380.46 64.505 378.794 67.7716C377.129 71.0519 374.795 73.5296 371.793 75.2188C368.802 76.9087 365.022 77.7533 360.463 77.7533C352.465 77.7533 346.921 75.7822 343.842 71.812C340.752 67.8561 339.01 62.8298 338.604 56.7195L338.603 56.7198ZM388.59 16.258H427.553V29.1679H403.163V38.7836H425.79V51.1165H403.163V63.0272H428.266V76.7253H388.59V16.2576L388.59 16.258ZM436.089 16.258H450.639V61.8306H473.332V76.7257H436.089V16.258Z" fill="#201E1E"/>
<path d="M485.866 93.1042H4.42147V85.6343H485.866L489.601 89.3693L485.866 93.1042ZM489.601 89.3693V93.1042H485.866L489.601 89.3693ZM489.601 3.73641V89.3693H482.131V3.73641L485.866 0.00146484L489.601 3.73641ZM485.866 0.00146484H489.601V3.73641L485.866 0.00146484ZM4.42147 0.00146484H485.866V7.47136H4.42147L0.686523 3.73641L4.42147 0.00146484ZM0.686523 3.73641V0.00146484H4.42147L0.686523 3.73641ZM0.686523 89.3693V3.73641H8.15642V89.3693L4.42147 93.1042L0.686523 89.3693ZM4.42147 93.1042H0.686523V89.3693L4.42147 93.1042Z" fill="#201E1E"/>
</svg>
